<svg id="Layer_1" data-name="Layer 1" xmlns="http://www.w3.org/2000/svg" viewBox="0 0 228.47 193.88"><defs><style>.cls-1{fill:#fff;}</style></defs><title>dashboard</title><path class="cls-1" d="M125.92,97.18A18.93,18.93,0,0,0,118,92.43L57,55.88l37.48,60.79a19,19,0,1,0,31.48-19.49Z"/><path class="cls-1" d="M114.24,0C51.15,0,0,51.33,0,114.42a115.09,115.09,0,0,0,17.8,61.45c4.25,6,11.17,18,21.67,18h148c10.5,0,18.95-12,23.2-18A114.54,114.54,0,0,0,114.24,0ZM40.63,175.88a96.86,96.86,0,0,1-22.16-61.51,95.76,95.76,0,1,1,169.37,61.51Z"/></svg>