<?xml version="1.0" encoding="utf-8"?>
<!-- Generator: Adobe Illustrator 21.0.0, SVG Export Plug-In . SVG Version: 6.00 Build 0)  -->
<svg version="1.1" id="Layer_4" xmlns="http://www.w3.org/2000/svg" xmlns:xlink="http://www.w3.org/1999/xlink" x="0px" y="0px"
	 viewBox="0 0 512 512" style="enable-background:new 0 0 512 512;" xml:space="preserve">
<path d="M424.7,149.6c4.5-8.9,3-19.9-4.5-27.4l-43-43c-7.5-7.5-18.9-9.4-28-5.1l-9.6,7.6L81.7,339.5l-23,100.4l100.4-23L417,159.1
	L424.7,149.6z M111.2,411.3c-2.3-4.9-5.5-9.5-9.5-13.6c-4.3-4.3-9.1-7.6-14.3-9.9l8.9-38.9l22.8,11.1l21,21l11,21l-0.1,0.1
	L111.2,411.3z"/>
<circle cx="22.5" cy="478.5" r="22.5"/>
<rect x="58.2" y="453.9" width="135.8" height="49.2"/>
<rect x="216.4" y="453.9" width="135.8" height="49.2"/>
<rect x="374.7" y="453.9" width="135.8" height="49.2"/>
</svg>
