<svg id="Layer_4" data-name="Layer 4" xmlns="http://www.w3.org/2000/svg" viewBox="0 0 510.48 431.31"><title>icon</title><path d="M424.71,77.83a23.57,23.57,0,0,0-4.5-27.44l-43-43a24.9,24.9,0,0,0-28-5.1l-9.58,7.63L81.73,267.74l-23,100.43,100.43-23L417,87.33ZM111.19,339.52a48.24,48.24,0,0,0-23.88-23.47l8.91-38.82L119,288.3l21,21,11,21-.06.06Z" transform="translate(0 -0.04)"/><circle cx="22.49" cy="406.7" r="22.49"/><rect x="58.15" y="382.1" width="135.78" height="49.21"/><rect x="216.43" y="382.1" width="135.78" height="49.21"/><rect x="374.7" y="382.1" width="135.78" height="49.21"/></svg>