<svg xmlns="http://www.w3.org/2000/svg" viewBox="0 0 510.48 431.35"><title>logo_2</title><path d="M424.71,149.6a23.58,23.58,0,0,0-4.5-27.44l-43-43a24.89,24.89,0,0,0-28-5.11l-9.58,7.63L81.73,339.51,58.73,440l100.43-23L417,159.1ZM111.19,411.29a48.21,48.21,0,0,0-23.88-23.47L96.22,349,119,358.07l23,23,9,21-.06.06Z" transform="translate(0 -71.77)" fill="#7e9fc3"/><circle cx="22.49" cy="406.74" r="22.49" fill="#6d88a8"/><rect x="58.15" y="382.14" width="135.78" height="49.21" fill="#6d88a8"/><rect x="216.43" y="382.14" width="135.78" height="49.21" fill="#7e9fc3"/><rect x="374.7" y="382.14" width="135.78" height="49.21" fill="#a4c0de"/></svg>